HIERARCHY
ROOT Hips
{
	OFFSET 0.000000 0.000000 0.000000
	CHANNELS 6 Xposition Yposition Zposition Zrotation Yrotation Xrotation 
	JOINT LHipJoint
	{
		OFFSET 0.000000 0.000000 0.000000
		CHANNELS 3 Zrotation Yrotation Xrotation
		JOINT LeftUpLeg
		{
			OFFSET 1.363060 -1.794630 0.839290
			CHANNELS 3 Zrotation Yrotation Xrotation
			JOINT LeftLeg
			{
				OFFSET 2.448110 -6.726130 0.000000
				CHANNELS 3 Zrotation Yrotation Xrotation
				JOINT LeftFoot
				{
					OFFSET 2.562200 -7.039590 0.000000
					CHANNELS 3 Zrotation Yrotation Xrotation
					JOINT LeftToeBase
					{
						OFFSET 0.157640 -0.433110 2.322550
						CHANNELS 3 Zrotation Yrotation Xrotation
						End Site
						{
							OFFSET 0.000000 0.000000 0.000000
						}
					}
				}
			}
		}
	}
	JOINT RHipJoint
	{
		OFFSET 0.000000 0.000000 0.000000
		CHANNELS 3 Zrotation Yrotation Xrotation
		JOINT RightUpLeg
		{
			OFFSET -1.305520 -1.794630 0.839290
			CHANNELS 3 Zrotation Yrotation Xrotation
			JOINT RightLeg
			{
				OFFSET -2.542530 -6.985550 0.000000
				CHANNELS 3 Zrotation Yrotation Xrotation
				JOINT RightFoot
				{
					OFFSET -2.568260 -7.056230 0.000000
					CHANNELS 3 Zrotation Yrotation Xrotation
					JOINT RightToeBase
					{
						OFFSET -0.164730 -0.452590 2.363150
						CHANNELS 3 Zrotation Yrotation Xrotation
						End Site
						{
							OFFSET 0.000000 0.000000 0.000000
						}
					}
				}
			}
		}
	}
}
MOTION
Frames: 30
Frame Time: 0.008333
2.830599 16.868978 1.546878 -51.048051 -66.778513 50.964809 -14.982637 -4.675738 -5.029115 7.650310 -9.477179 -10.545820 -0.475207 2.863230 35.217839 0.789629 2.979529 -15.548929 -0.487900 0.000000 -39.199400 3.404947 6.892438 2.790093 -9.261115 -18.930220 -101.536444 2.015939 1.148446 -0.842414 -1.643933 -8.876777 10.560500 -3.972300 0.000000 -77.896600
2.845578 16.871510 1.556960 -51.414080 -66.806832 50.971671 -14.981954 -4.587963 -4.905840 7.632966 -9.335138 -10.262744 -0.467466 2.828824 34.974109 0.784756 2.946154 -15.468488 -0.480500 0.000001 -38.930900 3.381200 6.834268 2.515436 -9.346293 -18.213739 -99.978467 2.071055 0.712796 1.856388 -1.467787 -8.057501 12.432067 -3.824800 0.000001 -76.747500
2.861051 16.875948 1.567552 -51.844847 -66.843122 51.001619 -14.976920 -4.497075 -4.788733 7.613129 -9.177819 -9.889124 -0.457779 2.792644 34.652437 0.781630 2.926088 -15.356843 -0.473200 0.000000 -38.667900 3.337108 6.781474 2.193647 -9.333914 -17.393407 -98.080416 2.112792 0.344949 4.107609 -1.303981 -7.231570 14.207668 -3.609500 0.000000 -74.516800
2.876159 16.882518 1.577730 -52.286366 -66.911661 51.039851 -14.959345 -4.402133 -4.678887 7.557457 -9.009231 -9.467043 -0.448015 2.752350 34.258343 0.781038 2.925117 -15.212497 -0.466800 -0.000000 -38.411200 3.297354 6.726593 1.858596 -9.218666 -16.476367 -95.940749 2.150422 0.057770 5.879933 -1.166671 -6.471761 15.653657 -3.352600 -0.000000 -71.783701
2.889835 16.891305 1.586649 -52.687315 -67.031866 51.071020 -14.922383 -4.301282 -4.573803 7.438915 -8.834801 -9.039866 -0.440008 2.705711 33.801740 0.783348 2.945933 -15.036776 -0.462100 0.000001 -38.160200 3.283243 6.662318 1.538989 -8.987345 -15.479837 -93.689542 2.193287 -0.155577 7.241168 -1.060256 -5.837350 16.630980 -3.094800 -0.000000 -69.253601
2.900361 16.902526 1.593600 -52.988850 -67.209687 51.078812 -14.861931 -4.190983 -4.461345 7.243318 -8.664093 -8.674848 -0.434793 2.649837 33.307140 0.787822 2.983475 -14.835611 -0.458500 0.000000 -37.912799 3.311010 6.581292 1.262802 -8.622538 -14.440744 -91.478257 2.249253 -0.313389 8.319276 -0.982139 -5.359114 17.096895 -2.871200 -0.000000 -67.522000
2.908640 16.915573 1.598267 -53.229121 -67.460308 51.071386 -14.776342 -4.073377 -4.356225 6.962459 -8.480956 -8.313124 -0.434200 2.586622 32.749821 0.795038 3.041368 -14.606834 -0.456200 0.000000 -37.685500 3.376193 6.483819 1.013733 -8.108553 -13.356259 -89.325976 2.318424 -0.434927 9.246310 -0.927162 -5.033262 17.049063 -2.691400 -0.000000 -66.679500
2.912364 16.930551 1.600439 -53.353735 -67.764542 51.035334 -14.668764 -3.943144 -4.233112 6.612981 -8.297451 -8.048279 -0.437493 2.513250 32.177255 0.802082 3.099235 -14.363853 -0.453100 -0.000000 -37.471300 3.484344 6.363231 0.814124 -7.421290 -12.286642 -87.364699 2.406009 -0.541861 10.165957 -0.889206 -4.835269 16.571576 -2.556100 -0.000000 -66.919400
2.912011 16.946889 1.599776 -53.377974 -68.122499 50.954778 -14.538764 -3.800015 -4.097675 6.192837 -8.112215 -7.834481 -0.445657 2.431510 31.577685 0.809428 3.160051 -14.107952 -0.449700 -0.000000 -37.275901 3.628546 6.221985 0.643803 -6.551765 -11.253398 -85.592384 2.507984 -0.653329 11.198950 -0.862093 -4.712511 15.751945 -2.443600 0.000000 -67.999200
2.907128 16.964089 1.596424 -53.309570 -68.523200 50.826193 -14.391412 -3.643092 -3.945622 5.717788 -7.922684 -7.668817 -0.458787 2.342678 30.961458 0.815793 3.214300 -13.847525 -0.445199 -0.000000 -37.098500 3.802229 6.060190 0.491168 -5.498013 -10.287766 -84.011250 2.620156 -0.785151 12.432471 -0.841409 -4.621651 14.712799 -2.337800 -0.000000 -69.631101
2.897786 16.981629 1.590255 -53.152285 -68.962549 50.633274 -14.228330 -3.472012 -3.778215 5.190761 -7.730212 -7.526170 -0.477413 2.248515 30.328596 0.821400 3.263197 -13.587288 -0.440000 0.000000 -36.935500 4.001224 5.880419 0.340957 -4.286457 -9.414332 -82.589503 2.731551 -0.949788 13.921087 -0.824280 -4.530046 13.591828 -2.229100 -0.000000 -71.476800
2.884244 16.998986 1.581249 -52.914885 -69.438784 50.367712 -14.051454 -3.287845 -3.598390 4.614379 -7.533332 -7.386265 -0.501985 2.150859 29.680346 0.826600 3.309030 -13.332067 -0.434600 0.000000 -36.781900 4.222503 5.686004 0.182093 -2.971265 -8.646927 -81.275808 2.826675 -1.153096 15.674656 -0.810027 -4.429111 12.529901 -2.120200 -0.000000 -73.210700
2.866847 17.015648 1.569910 -52.629158 -69.948221 50.054734 -13.867215 -3.093800 -3.409606 4.006847 -7.317913 -7.246510 -0.532229 2.051776 29.025979 0.830439 3.344838 -13.087992 -0.428600 0.000000 -36.637300 4.461097 5.478929 0.011165 -1.620435 -7.978493 -80.007251 2.889861 -1.391659 17.654436 -0.800146 -4.336048 11.652794 -2.023900 0.000000 -74.562600
2.846214 17.031275 1.556020 -52.298159 -70.498167 49.691024 -13.673224 -2.893064 -3.219998 3.357911 -7.085436 -7.089014 -0.568519 1.952477 28.361139 0.834769 3.384021 -12.854436 -0.423400 -0.000000 -36.496300 4.717289 5.265328 -0.170070 -0.324789 -7.394610 -78.726113 2.904143 -1.657190 19.811524 -0.794975 -4.257713 11.037907 -1.945500 0.000000 -75.342800
2.822951 17.045621 1.540005 -51.949189 -71.089157 49.308322 -13.472894 -2.690295 -3.035920 2.678128 -6.825922 -6.917445 -0.610310 1.854248 27.691878 0.839579 3.426533 -12.633447 -0.418799 -0.000000 -36.361700 4.987177 5.049212 -0.353550 0.846025 -6.864764 -77.388957 2.861381 -1.935516 22.081584 -0.794527 -4.200375 10.709557 -1.887300 0.000001 -75.476200
2.797676 17.058428 1.523136 -51.652682 -71.709214 48.985607 -13.278560 -2.491366 -2.861384 2.008423 -6.512308 -6.759423 -0.655814 1.759054 27.040167 0.841903 3.451003 -12.431052 -0.413201 0.000000 -36.245300 5.260663 4.830662 -0.529363 1.865366 -6.345753 -75.968544 2.764778 -2.210202 24.398659 -0.797938 -4.164916 10.640347 -1.847700 0.000000 -75.011100
2.771177 17.069690 1.504954 -51.388570 -72.364174 48.701438 -13.083499 -2.298368 -2.703282 1.328034 -6.163017 -6.597055 -0.705098 1.667026 26.395498 0.844705 3.479180 -12.240387 -0.408200 -0.000000 -36.145800 5.539229 4.617054 -0.691935 2.698421 -5.820054 -74.463527 2.616925 -2.472934 26.750808 -0.800700 -4.111914 10.750889 -1.806300 -0.000000 -74.076300
2.743893 17.079391 1.486571 -51.211242 -73.035192 48.516344 -12.898976 -2.114704 -2.562113 0.675398 -5.762309 -6.454686 -0.756338 1.579818 25.778737 0.844868 3.488320 -12.066119 -0.402000 0.000000 -36.077700 5.813875 4.406976 -0.837209 3.373085 -5.263392 -72.878865 2.431312 -2.715475 29.115317 -0.799939 -4.022374 10.956436 -1.751701 -0.000000 -72.906500
2.716228 17.087633 1.468093 -51.114532 -73.711408 48.421985 -12.725624 -1.941139 -2.438203 0.053687 -5.323691 -6.329200 -0.808735 1.498017 25.191446 0.842666 3.480548 -11.905468 -0.394700 0.000000 -36.047000 6.082997 4.202555 -0.966045 3.913360 -4.676917 -71.229525 2.218612 -2.935999 31.497004 -0.792041 -3.866719 11.174502 -1.668801 -0.000000 -71.743300
2.688388 17.094609 1.449667 -51.083785 -74.377794 48.402051 -12.565370 -1.777594 -2.329214 -0.529772 -4.861349 -6.220680 -0.861420 1.422209 24.638516 0.837705 3.452918 -11.757070 -0.386300 -0.000001 -36.057500 6.345340 4.004013 -1.081523 4.354739 -4.074494 -69.529045 1.989735 -3.134664 33.896352 -0.774692 -3.627036 11.346133 -1.548700 0.000000 -70.802200
2.660382 17.100517 1.430967 -51.061001 -75.024808 48.394620 -12.414833 -1.622922 -2.231716 -1.086264 -4.405749 -6.115777 -0.913994 1.352169 24.112288 0.831579 3.417440 -11.615350 -0.377300 -0.000000 -36.107300 6.603527 3.812796 -1.188329 4.721095 -3.484629 -67.788665 1.752904 -3.313340 36.309812 -0.746646 -3.291129 11.439749 -1.387200 -0.000000 -70.236800
2.632004 17.105598 1.412339 -51.019696 -75.632945 48.374805 -12.278884 -1.476335 -2.139034 -1.600796 -3.968203 -6.025656 -0.965440 1.288215 23.623654 0.822767 3.362444 -11.482980 -0.367200 -0.000000 -36.195200 6.855527 3.624979 -1.289159 5.051654 -2.933191 -66.015043 1.517858 -3.472612 38.707734 -0.708455 -2.866245 11.453092 -1.190899 -0.000000 -70.113000
2.603132 17.110107 1.393501 -50.886359 -76.195270 48.267928 -12.154338 -1.336386 -2.045252 -2.085199 -3.577334 -5.944641 -1.015500 1.229545 23.166662 0.812731 3.298604 -11.356854 -0.356700 0.000000 -36.309600 7.103702 3.439274 -1.386053 5.358872 -2.451773 -64.212763 1.290456 -3.613665 41.054238 -0.661782 -2.362545 11.401694 -0.967800 -0.000000 -70.426600
2.573328 17.114337 1.374473 -50.607124 -76.703277 48.026240 -12.041383 -1.201804 -1.943333 -2.540430 -3.249113 -5.881616 -1.063749 1.175248 22.742960 0.801618 3.226389 -11.238116 -0.345900 0.000000 -36.436900 7.347248 3.251742 -1.477626 5.655334 -2.061272 -62.388359 1.076298 -3.736858 43.298964 -0.609581 -1.802719 11.311738 -0.730600 -0.000000 -71.112100
2.542310 17.118625 1.354918 -50.107232 -77.160727 47.580827 -11.934150 -1.071063 -1.828015 -2.986447 -3.009091 -5.830550 -1.110307 1.123531 22.338115 0.791929 3.164404 -11.122115 -0.335901 0.000000 -36.556800 7.587656 3.061101 -1.561509 5.931349 -1.775369 -60.549142 0.878241 -3.842929 45.394825 -0.555275 -1.210660 11.205168 -0.490300 0.000000 -72.037900
2.509725 17.123266 1.335196 -49.385548 -77.562429 46.940153 -11.835333 -0.943512 -1.693575 -3.413999 -2.853553 -5.813451 -1.154715 1.073402 21.959394 0.782685 3.104501 -11.013334 -0.326600 0.000000 -36.654100 7.820115 2.862933 -1.631986 6.193830 -1.589295 -58.706471 0.699839 -3.931235 47.288112 -0.503024 -0.624790 11.102263 -0.261900 0.000000 -73.090400
2.475506 17.128470 1.315145 -48.419325 -77.918195 46.086319 -11.739648 -0.818432 -1.537701 -3.838910 -2.793110 -5.827225 -1.197224 1.023033 21.591185 0.776084 3.063346 -10.907589 -0.318600 -0.000001 -36.709400 8.043992 2.657913 -1.684542 6.426523 -1.492047 -56.873474 0.541839 -4.002283 48.945958 -0.456076 -0.075774 11.003931 -0.055100 0.000000 -74.099700
2.439412 17.134511 1.295178 -47.253861 -78.229957 45.074071 -11.648893 -0.695383 -1.358835 -4.252209 -2.813014 -5.887082 -1.237646 0.971541 21.235327 0.771187 3.033430 -10.807131 -0.311500 0.000001 -36.711700 8.254333 2.444626 -1.713115 6.631836 -1.458048 -55.064161 0.405476 -4.055796 50.340389 -0.417371 0.398932 10.903852 0.118800 -0.000000 -74.963400
2.401452 17.141542 1.275312 -45.921962 -78.509975 43.938592 -11.559733 -0.574263 -1.158464 -4.661404 -2.908210 -5.988899 -1.276211 0.917714 20.878209 0.769285 3.024896 -10.708077 -0.305800 -0.000000 -36.651100 8.449974 2.225501 -1.713732 6.799110 -1.459309 -53.291343 0.290135 -4.092477 51.464980 -0.388453 0.774138 10.783191 0.252900 -0.000000 -75.576000
2.361775 17.149632 1.255764 -44.489205 -78.767346 42.746694 -11.472047 -0.455368 -0.939619 -5.062595 -3.062121 -6.132840 -1.312946 0.861059 20.513741 0.770161 3.036449 -10.608594 -0.301000 -0.000001 -36.525800 8.628670 2.002424 -1.683061 6.928036 -1.462909 -51.565339 0.195065 -4.112895 52.322605 -0.370231 1.028387 10.621854 0.341400 -0.000001 -75.897199
